<svg width="125" height="123" viewBox="0 0 125 123" fill="none" xmlns="http://www.w3.org/2000/svg">
<g clip-path="url(#clip0_1_17155)">
<path d="M0.189453 1.33508H46.1805V14.8684H31.6024V53.1698H14.6939V14.8684H0.189453V1.33508Z" fill="white"/>
<path d="M68.9195 1.33508H52.0088V53.1698H68.9195V1.33508Z" fill="white"/>
<path d="M109.549 16.4559C107.435 15.1515 105.381 14.497 103.39 14.497C101.397 14.497 99.5865 15.0269 97.9615 16.0867C96.332 17.1466 95.0686 18.6118 94.1691 20.4869C93.2695 22.3597 92.8209 24.4794 92.8209 26.8436C92.8209 29.2102 93.2695 31.3434 94.1691 33.2389C95.0686 35.1366 96.3298 36.629 97.9615 37.7115C99.5865 38.7963 101.397 39.3375 103.39 39.3375C105.238 39.3375 107.216 38.7827 109.33 37.6753C111.444 36.5656 113.325 35.1004 114.979 33.2751L124.743 43.8486C121.877 47.053 118.439 49.6052 114.43 51.5007C110.424 53.3985 106.448 54.3473 102.515 54.3473C97.3633 54.3473 92.7361 53.1765 88.6311 50.8349C84.524 48.4933 81.3052 45.2413 78.9704 41.0745C76.6423 36.9098 75.4727 32.2379 75.4727 27.061C75.4727 21.934 76.6624 17.3368 79.0441 13.2696C81.4258 9.20232 84.716 6.01148 88.9213 3.69478C93.1244 1.38488 97.8744 0.227661 103.171 0.227661C107.06 0.227661 110.97 1.1018 114.906 2.85235C118.843 4.60063 122.12 6.93317 124.743 9.83867L114.979 21.5965C113.473 19.4769 111.662 17.7625 109.549 16.4559Z" fill="white"/>
<path fill-rule="evenodd" clip-rule="evenodd" d="M89.2176 79.9657L77.5116 68.2598L62.4092 83.3622L74.1152 95.0682L89.2176 79.9657ZM77.5118 121.878L89.2178 110.172L74.1154 95.0691L62.4094 106.775L77.5118 121.878Z" fill="#E61366"/>
<path fill-rule="evenodd" clip-rule="evenodd" d="M35.6003 79.9657L47.3063 68.2598L74.0622 95.0157L74.062 95.0159L74.1146 95.0684L47.3061 121.877L35.6001 110.171L50.7028 95.0683L35.6003 79.9657Z" fill="white"/>
</g>
<defs>
<clipPath id="clip0_1_17155">
<rect width="124.553" height="121.789" fill="white" transform="translate(0.189453 0.227661)"/>
</clipPath>
</defs>
</svg>
