<svg width="190" height="203" viewBox="0 0 190 203" fill="none" xmlns="http://www.w3.org/2000/svg">
<path d="M68.4932 16.0803C66.6314 16.0803 65.1221 17.5896 65.1221 19.4514C65.1221 21.3133 66.6314 22.8226 68.4932 22.8226H95.0655C96.9273 22.8226 98.4366 21.3133 98.4366 19.4514C98.4366 17.5896 96.9273 16.0803 95.0655 16.0803H68.4932Z" fill="white"/>
<path fill-rule="evenodd" clip-rule="evenodd" d="M4.18404 0.414551C2.10319 0.414551 0.416325 2.10142 0.416325 4.18227C0.416325 6.26312 2.10319 7.94999 4.18404 7.94999H49.4563V34.2307L3.89309 34.2316C1.81224 34.2317 0.125413 35.9186 0.125458 37.9994C0.125502 40.0803 1.8124 41.7671 3.89326 41.7671L49.4563 41.7661V45.0323C49.4563 52.8081 55.7598 59.1116 63.5357 59.1116H80.9547L91.4961 76.5208V81.3201C91.4961 87.8564 96.7948 93.1551 103.331 93.1551H104.516C106.236 93.1551 107.631 94.5497 107.631 96.2701C107.631 97.9904 106.236 99.3851 104.516 99.3851H103.331C97.3899 99.3851 92.4712 103.763 91.6248 109.469L55.7373 130.19C55.1255 130.542 54.6173 131.05 54.264 131.662C53.9107 132.273 53.7247 132.967 53.7248 133.673V176.881C53.7249 177.588 53.9109 178.282 54.2641 178.894C54.6174 179.507 55.1254 180.015 55.7373 180.369L93.2511 202.024C93.8625 202.379 94.5568 202.566 95.2637 202.566C95.9706 202.566 96.6649 202.379 97.2762 202.024L134.79 180.369C135.402 180.015 135.91 179.507 136.263 178.894C136.616 178.282 136.802 177.588 136.803 176.881V133.673C136.803 132.967 136.617 132.273 136.263 131.662C135.91 131.05 135.402 130.542 134.79 130.19L99.3071 109.702C99.9206 108.077 101.491 106.92 103.331 106.92H104.516C110.398 106.92 115.166 102.152 115.166 96.2701C115.166 90.388 110.398 85.6196 104.516 85.6196H103.331C100.956 85.6196 99.0315 83.6947 99.0315 81.3201V76.5207L109.573 59.1116H126.199C133.975 59.1116 140.278 52.8081 140.278 45.0323V41.767L185.947 41.7661C188.028 41.766 189.714 40.0791 189.714 37.9983C189.714 35.9174 188.027 34.2306 185.947 34.2306L140.278 34.2316V7.94999H186.238C188.318 7.94999 190.005 6.26312 190.005 4.18227C190.005 2.10142 188.318 0.414551 186.238 0.414551H4.18404ZM132.743 7.94999H56.9917V45.0323C56.9917 48.6464 59.9215 51.5762 63.5357 51.5762H126.199C129.813 51.5762 132.743 48.6464 132.743 45.0323V7.94999ZM65.8001 133.673L91.4961 118.84V125.633C91.4961 127.714 93.183 129.4 95.2638 129.4C97.3447 129.4 99.0315 127.714 99.0315 125.633V118.84L124.727 133.673L95.2637 150.686L65.8001 133.673ZM89.7639 59.1116L95.2638 68.1947L100.764 59.1116H89.7639ZM61.775 140.644L91.2386 157.657V191.57L61.775 174.557V140.644ZM128.752 174.557L99.2888 191.57V157.657L128.752 140.644V174.557Z" fill="white"/>
</svg>
